<?xml version="1.0" encoding="iso-8859-1"?>
<!-- Uploaded to: SVG Repo, www.svgrepo.com, Generator: SVG Repo Mixer Tools -->
<svg version="1.1" id="Layer_1" xmlns="http://www.w3.org/2000/svg" xmlns:xlink="http://www.w3.org/1999/xlink" 
	 viewBox="0 0 512 512" xml:space="preserve">
<g>
	<rect x="63.086" y="102.933" style="fill:#82B1E1;" width="51.995" height="89.974"/>
	<rect x="122.451" y="102.933" style="fill:#82B1E1;" width="51.184" height="89.974"/>
	<rect x="181.005" y="102.933" style="fill:#82B1E1;" width="52.683" height="89.974"/>
	<rect x="279.234" y="102.933" style="fill:#82B1E1;" width="52.007" height="89.974"/>
	<rect x="338.611" y="102.933" style="fill:#82B1E1;" width="51.171" height="89.974"/>
	<rect x="397.152" y="102.933" style="fill:#82B1E1;" width="52.695" height="89.974"/>
</g>
<g>
	<rect x="63.086" y="200.265" style="fill:#A0D2F0;" width="51.995" height="81.167"/>
	<rect x="122.451" y="200.265" style="fill:#A0D2F0;" width="51.184" height="81.167"/>
	<rect x="279.234" y="200.265" style="fill:#A0D2F0;" width="52.007" height="81.167"/>
	<rect x="338.611" y="200.265" style="fill:#A0D2F0;" width="51.171" height="81.167"/>
	<rect x="397.152" y="200.265" style="fill:#A0D2F0;" width="52.695" height="81.167"/>
	<rect x="386.896" y="338.34" style="fill:#A0D2F0;" width="62.153" height="61.011"/>
	<rect x="279.234" y="338.34" style="fill:#A0D2F0;" width="60.986" height="61.011"/>
	<rect x="171.019" y="338.34" style="fill:#A0D2F0;" width="60.986" height="61.011"/>
	<rect x="181.005" y="200.265" style="fill:#A0D2F0;" width="52.683" height="81.167"/>
</g>
<path style="fill:#AF6964;" d="M23.338,53.377v405.247h32.378V334.662c0-2.032,1.653-3.685,3.685-3.685h68.319
	c2.032,0,3.685,1.653,3.685,3.685v123.962h357.256V53.377H23.338z M237.373,288.808H59.401c-2.032,0-3.685-1.653-3.685-3.685V99.242
	c0-2.032,1.653-3.685,3.685-3.685h177.971c2.032,0,3.684,1.653,3.684,3.685v185.881
	C241.056,287.155,239.404,288.808,237.373,288.808z M239.375,334.661v68.381c0,2.032-1.653,3.685-3.685,3.685h-68.356
	c-2.032,0-3.685-1.653-3.685-3.685v-68.38c0-2.032,1.653-3.685,3.685-3.685h68.356C237.721,330.977,239.375,332.63,239.375,334.661z
	 M379.526,334.661c0-2.032,1.653-3.685,3.685-3.685h69.523c2.032,0,3.685,1.653,3.685,3.685v68.381c0,2.032-1.653,3.685-3.685,3.685
	h-69.523c-2.032,0-3.685-1.653-3.685-3.685V334.661z M457.217,285.123c0,2.032-1.653,3.685-3.685,3.685H275.549
	c-2.032,0-3.685-1.653-3.685-3.685V99.242c0-2.032,1.653-3.685,3.685-3.685h177.983c2.032,0,3.685,1.653,3.685,3.685V285.123z
	 M271.864,334.661c0-2.032,1.653-3.685,3.685-3.685h68.356c2.032,0,3.685,1.653,3.685,3.685v68.381c0,2.032-1.653,3.685-3.685,3.685
	h-68.356c-2.032,0-3.685-1.653-3.685-3.685L271.864,334.661L271.864,334.661z"/>
<path style="fill:#9FA7BF;" d="M63.086,389.44l5.86,0.269c0.91,0.042,1.793,0.427,2.425,1.058c0.673,0.673,1.076,1.644,1.076,2.597
	c0,0.961-0.402,1.936-1.076,2.609c-0.63,0.63-1.513,1.016-2.425,1.058l-5.86,0.269v61.325h60.949V338.346H63.086V389.44z"/>
<path d="M511.595,49.692c0,5.294-4.176,9.593-9.421,9.814v392.976c5.429,0,9.827,4.397,9.827,9.827c0,5.429-4.397,9.827-9.827,9.827
	H10.035c-5.429,0-9.827-4.397-9.827-9.827c0-5.355,4.287-9.704,9.618-9.814V59.518C4.397,59.518,0,55.121,0,49.692
	c0-5.417,4.397-9.827,9.827-9.827h491.942C507.197,39.865,511.595,44.275,511.595,49.692z M482.52,452.482V59.518H29.48v392.964
	h20.095v-117.82c0-5.417,4.397-9.827,9.827-9.827h68.319c5.429,0,9.827,4.41,9.827,9.827v117.82H482.52z M117.894,452.482V344.488
	H69.228v39.085c2.42,0.111,4.766,1.13,6.486,2.85c1.83,1.83,2.874,4.361,2.874,6.94c0,2.592-1.044,5.122-2.874,6.952
	c-1.72,1.72-4.066,2.739-6.486,2.85v49.317L117.894,452.482L117.894,452.482z"/>
<path d="M463.359,99.242v185.881c0,5.429-4.397,9.827-9.827,9.827H275.549c-5.417,0-9.827-4.397-9.827-9.827V99.242
	c0-5.429,4.41-9.827,9.827-9.827h177.983C458.961,89.415,463.359,93.813,463.359,99.242z M443.706,275.297v-68.884h-40.412v68.884
	H443.706z M443.706,186.76v-77.691h-40.412v77.691H443.706z M383.641,275.297v-68.884h-38.889v68.884H383.641z M383.641,186.76
	v-77.691h-38.889v77.691H383.641z M325.099,275.297v-68.884h-39.724v68.884H325.099z M325.099,186.76v-77.691h-39.724v77.691
	H325.099z"/>
<path d="M462.56,334.661v68.381c0,5.429-4.397,9.827-9.827,9.827h-69.523c-5.429,0-9.827-4.397-9.827-9.827v-68.38
	c0-5.417,4.397-9.827,9.827-9.827h69.523C458.163,324.835,462.56,329.245,462.56,334.661z M442.907,393.215v-48.727h-49.87v48.727
	H442.907z"/>
<path d="M353.731,334.661v68.381c0,5.429-4.397,9.827-9.827,9.827h-68.356c-5.417,0-9.827-4.397-9.827-9.827v-68.38
	c0-5.417,4.41-9.827,9.827-9.827h68.356C349.334,324.835,353.731,329.245,353.731,334.661z M334.078,393.215v-48.727h-48.703v48.727
	H334.078z"/>
<path d="M247.199,99.242v185.881c0,5.429-4.397,9.827-9.827,9.827H59.401c-5.429,0-9.827-4.397-9.827-9.827V99.242
	c0-5.429,4.397-9.827,9.827-9.827h177.971C242.802,89.415,247.199,93.813,247.199,99.242z M227.546,275.297v-68.884h-40.399v68.884
	H227.546z M227.546,186.76v-77.691h-40.399v77.691H227.546z M167.494,275.297v-68.884h-38.901v68.884H167.494z M167.494,186.76
	v-77.691h-38.901v77.691H167.494z M108.94,275.297v-68.884H69.228v68.884H108.94z M108.94,186.76v-77.691H69.228v77.691H108.94z"/>
<path d="M245.516,334.661v68.381c0,5.429-4.41,9.827-9.827,9.827h-68.356c-5.429,0-9.827-4.397-9.827-9.827v-68.38
	c0-5.417,4.397-9.827,9.827-9.827h68.356C241.107,324.835,245.516,329.245,245.516,334.661z M225.863,393.215v-48.727H177.16v48.727
	H225.863z"/>
</svg>