<?xml version="1.0" encoding="utf-8"?>
<!-- Uploaded to: SVG Repo, www.svgrepo.com, Generator: SVG Repo Mixer Tools -->
<svg width="800px" height="800px" viewBox="0 0 1024 1024" class="icon"  version="1.1" xmlns="http://www.w3.org/2000/svg"><path d="M765.217 609.391C765.217 803.032 608.25 960 414.61 960 220.969 960 64 803.032 64 609.391c0-193.64 156.969-350.608 350.61-350.608v350.608h350.607z" fill="#0DB14B" /><path d="M960 531.477C960 273.279 750.723 64 492.523 64v467.477H960z" fill="#FF3B30" /><path d="M378.77 609.392h35.84v-350.61c-12.099 0-24.056 0.683-35.84 2.016v348.594zM727.569 609.391C709.619 786.195 560.311 924.16 378.77 924.16c-87.694 0-167.666-32.413-229.145-85.625C213.914 912.809 308.662 960 414.61 960c193.64 0 350.609-156.969 350.609-350.609h-37.65zM804.64 183.52c74.288 82.762 119.52 192.138 119.52 312.117H492.523v35.84H960c0-138.219-60.014-262.375-155.36-347.957z" fill="" /></svg>